<svg width="30" height="30" viewBox="0 0 0.9 0.9" fill="none" xmlns="http://www.w3.org/2000/svg"><path d="m.618.203.08.08M.669.133.454.348a.08.08 0 0 0-.022.041l-.02.099.099-.02A.079.079 0 0 0 .552.446L.767.231A.07.07 0 1 0 .669.133Z" stroke="#E23161" stroke-width=".075" stroke-linecap="round" stroke-linejoin="round"/><path d="M.713.563v.112A.075.075 0 0 1 .638.75H.225A.075.075 0 0 1 .15.675V.263A.075.075 0 0 1 .225.188h.112" stroke="#E23161" stroke-width=".075" stroke-linecap="round" stroke-linejoin="round"/></svg>